<?xml version="1.0" encoding="utf-8" standalone="no"?>
<!DOCTYPE svg PUBLIC "-//W3C//DTD SVG 1.1//EN"
  "http://www.w3.org/Graphics/SVG/1.1/DTD/svg11.dtd">
<!-- Created with matplotlib (https://matplotlib.org/) -->
<svg height="552.24pt" version="1.1" viewBox="0 0 1105.92 552.24" width="1105.92pt" xmlns="http://www.w3.org/2000/svg" xmlns:xlink="http://www.w3.org/1999/xlink">
 <defs>
  <style type="text/css">
*{stroke-linecap:butt;stroke-linejoin:round;}
  </style>
 </defs>
 <g id="figure_1">
  <g id="patch_1">
   <path d="M 0 552.24 
L 1105.92 552.24 
L 1105.92 0 
L 0 0 
z
" style="fill:#ffffff;"/>
  </g>
  <g id="axes_1">
   <g id="patch_2">
    <path d="M 138.24 491.4936 
L 995.328 491.4936 
L 995.328 66.2688 
L 138.24 66.2688 
z
" style="fill:#ffffff;"/>
   </g>
   <g id="matplotlib.axis_1">
    <g id="xtick_1">
     <g id="line2d_1">
      <defs>
       <path d="M 0 0 
L 0 3.5 
" id="mad6d0cb734" style="stroke:#000000;stroke-width:0.8;"/>
      </defs>
      <g>
       <use style="stroke:#000000;stroke-width:0.8;" x="176.436893" xlink:href="#mad6d0cb734" y="491.4936"/>
      </g>
     </g>
     <g id="text_1">
      <!-- 0.000 -->
      <defs>
       <path d="M 31.78125 66.40625 
Q 24.171875 66.40625 20.328125 58.90625 
Q 16.5 51.421875 16.5 36.375 
Q 16.5 21.390625 20.328125 13.890625 
Q 24.171875 6.390625 31.78125 6.390625 
Q 39.453125 6.390625 43.28125 13.890625 
Q 47.125 21.390625 47.125 36.375 
Q 47.125 51.421875 43.28125 58.90625 
Q 39.453125 66.40625 31.78125 66.40625 
z
M 31.78125 74.21875 
Q 44.046875 74.21875 50.515625 64.515625 
Q 56.984375 54.828125 56.984375 36.375 
Q 56.984375 17.96875 50.515625 8.265625 
Q 44.046875 -1.421875 31.78125 -1.421875 
Q 19.53125 -1.421875 13.0625 8.265625 
Q 6.59375 17.96875 6.59375 36.375 
Q 6.59375 54.828125 13.0625 64.515625 
Q 19.53125 74.21875 31.78125 74.21875 
z
" id="DejaVuSans-48"/>
       <path d="M 10.6875 12.40625 
L 21 12.40625 
L 21 0 
L 10.6875 0 
z
" id="DejaVuSans-46"/>
      </defs>
      <g transform="translate(162.12283 506.092038)scale(0.1 -0.1)">
       <use xlink:href="#DejaVuSans-48"/>
       <use x="63.623047" xlink:href="#DejaVuSans-46"/>
       <use x="95.410156" xlink:href="#DejaVuSans-48"/>
       <use x="159.033203" xlink:href="#DejaVuSans-48"/>
       <use x="222.65625" xlink:href="#DejaVuSans-48"/>
      </g>
     </g>
    </g>
    <g id="xtick_2">
     <g id="line2d_2">
      <g>
       <use style="stroke:#000000;stroke-width:0.8;" x="295.445157" xlink:href="#mad6d0cb734" y="491.4936"/>
      </g>
     </g>
     <g id="text_2">
      <!-- 0.005 -->
      <defs>
       <path d="M 10.796875 72.90625 
L 49.515625 72.90625 
L 49.515625 64.59375 
L 19.828125 64.59375 
L 19.828125 46.734375 
Q 21.96875 47.46875 24.109375 47.828125 
Q 26.265625 48.1875 28.421875 48.1875 
Q 40.625 48.1875 47.75 41.5 
Q 54.890625 34.8125 54.890625 23.390625 
Q 54.890625 11.625 47.5625 5.09375 
Q 40.234375 -1.421875 26.90625 -1.421875 
Q 22.3125 -1.421875 17.546875 -0.640625 
Q 12.796875 0.140625 7.71875 1.703125 
L 7.71875 11.625 
Q 12.109375 9.234375 16.796875 8.0625 
Q 21.484375 6.890625 26.703125 6.890625 
Q 35.15625 6.890625 40.078125 11.328125 
Q 45.015625 15.765625 45.015625 23.390625 
Q 45.015625 31 40.078125 35.4375 
Q 35.15625 39.890625 26.703125 39.890625 
Q 22.75 39.890625 18.8125 39.015625 
Q 14.890625 38.140625 10.796875 36.28125 
z
" id="DejaVuSans-53"/>
      </defs>
      <g transform="translate(281.131095 506.092038)scale(0.1 -0.1)">
       <use xlink:href="#DejaVuSans-48"/>
       <use x="63.623047" xlink:href="#DejaVuSans-46"/>
       <use x="95.410156" xlink:href="#DejaVuSans-48"/>
       <use x="159.033203" xlink:href="#DejaVuSans-48"/>
       <use x="222.65625" xlink:href="#DejaVuSans-53"/>
      </g>
     </g>
    </g>
    <g id="xtick_3">
     <g id="line2d_3">
      <g>
       <use style="stroke:#000000;stroke-width:0.8;" x="414.453421" xlink:href="#mad6d0cb734" y="491.4936"/>
      </g>
     </g>
     <g id="text_3">
      <!-- 0.010 -->
      <defs>
       <path d="M 12.40625 8.296875 
L 28.515625 8.296875 
L 28.515625 63.921875 
L 10.984375 60.40625 
L 10.984375 69.390625 
L 28.421875 72.90625 
L 38.28125 72.90625 
L 38.28125 8.296875 
L 54.390625 8.296875 
L 54.390625 0 
L 12.40625 0 
z
" id="DejaVuSans-49"/>
      </defs>
      <g transform="translate(400.139359 506.092038)scale(0.1 -0.1)">
       <use xlink:href="#DejaVuSans-48"/>
       <use x="63.623047" xlink:href="#DejaVuSans-46"/>
       <use x="95.410156" xlink:href="#DejaVuSans-48"/>
       <use x="159.033203" xlink:href="#DejaVuSans-49"/>
       <use x="222.65625" xlink:href="#DejaVuSans-48"/>
      </g>
     </g>
    </g>
    <g id="xtick_4">
     <g id="line2d_4">
      <g>
       <use style="stroke:#000000;stroke-width:0.8;" x="533.461686" xlink:href="#mad6d0cb734" y="491.4936"/>
      </g>
     </g>
     <g id="text_4">
      <!-- 0.015 -->
      <g transform="translate(519.147623 506.092038)scale(0.1 -0.1)">
       <use xlink:href="#DejaVuSans-48"/>
       <use x="63.623047" xlink:href="#DejaVuSans-46"/>
       <use x="95.410156" xlink:href="#DejaVuSans-48"/>
       <use x="159.033203" xlink:href="#DejaVuSans-49"/>
       <use x="222.65625" xlink:href="#DejaVuSans-53"/>
      </g>
     </g>
    </g>
    <g id="xtick_5">
     <g id="line2d_5">
      <g>
       <use style="stroke:#000000;stroke-width:0.8;" x="652.46995" xlink:href="#mad6d0cb734" y="491.4936"/>
      </g>
     </g>
     <g id="text_5">
      <!-- 0.020 -->
      <defs>
       <path d="M 19.1875 8.296875 
L 53.609375 8.296875 
L 53.609375 0 
L 7.328125 0 
L 7.328125 8.296875 
Q 12.9375 14.109375 22.625 23.890625 
Q 32.328125 33.6875 34.8125 36.53125 
Q 39.546875 41.84375 41.421875 45.53125 
Q 43.3125 49.21875 43.3125 52.78125 
Q 43.3125 58.59375 39.234375 62.25 
Q 35.15625 65.921875 28.609375 65.921875 
Q 23.96875 65.921875 18.8125 64.3125 
Q 13.671875 62.703125 7.8125 59.421875 
L 7.8125 69.390625 
Q 13.765625 71.78125 18.9375 73 
Q 24.125 74.21875 28.421875 74.21875 
Q 39.75 74.21875 46.484375 68.546875 
Q 53.21875 62.890625 53.21875 53.421875 
Q 53.21875 48.921875 51.53125 44.890625 
Q 49.859375 40.875 45.40625 35.40625 
Q 44.1875 33.984375 37.640625 27.21875 
Q 31.109375 20.453125 19.1875 8.296875 
z
" id="DejaVuSans-50"/>
      </defs>
      <g transform="translate(638.155888 506.092038)scale(0.1 -0.1)">
       <use xlink:href="#DejaVuSans-48"/>
       <use x="63.623047" xlink:href="#DejaVuSans-46"/>
       <use x="95.410156" xlink:href="#DejaVuSans-48"/>
       <use x="159.033203" xlink:href="#DejaVuSans-50"/>
       <use x="222.65625" xlink:href="#DejaVuSans-48"/>
      </g>
     </g>
    </g>
    <g id="xtick_6">
     <g id="line2d_6">
      <g>
       <use style="stroke:#000000;stroke-width:0.8;" x="771.478215" xlink:href="#mad6d0cb734" y="491.4936"/>
      </g>
     </g>
     <g id="text_6">
      <!-- 0.025 -->
      <g transform="translate(757.164152 506.092038)scale(0.1 -0.1)">
       <use xlink:href="#DejaVuSans-48"/>
       <use x="63.623047" xlink:href="#DejaVuSans-46"/>
       <use x="95.410156" xlink:href="#DejaVuSans-48"/>
       <use x="159.033203" xlink:href="#DejaVuSans-50"/>
       <use x="222.65625" xlink:href="#DejaVuSans-53"/>
      </g>
     </g>
    </g>
    <g id="xtick_7">
     <g id="line2d_7">
      <g>
       <use style="stroke:#000000;stroke-width:0.8;" x="890.486479" xlink:href="#mad6d0cb734" y="491.4936"/>
      </g>
     </g>
     <g id="text_7">
      <!-- 0.030 -->
      <defs>
       <path d="M 40.578125 39.3125 
Q 47.65625 37.796875 51.625 33 
Q 55.609375 28.21875 55.609375 21.1875 
Q 55.609375 10.40625 48.1875 4.484375 
Q 40.765625 -1.421875 27.09375 -1.421875 
Q 22.515625 -1.421875 17.65625 -0.515625 
Q 12.796875 0.390625 7.625 2.203125 
L 7.625 11.71875 
Q 11.71875 9.328125 16.59375 8.109375 
Q 21.484375 6.890625 26.8125 6.890625 
Q 36.078125 6.890625 40.9375 10.546875 
Q 45.796875 14.203125 45.796875 21.1875 
Q 45.796875 27.640625 41.28125 31.265625 
Q 36.765625 34.90625 28.71875 34.90625 
L 20.21875 34.90625 
L 20.21875 43.015625 
L 29.109375 43.015625 
Q 36.375 43.015625 40.234375 45.921875 
Q 44.09375 48.828125 44.09375 54.296875 
Q 44.09375 59.90625 40.109375 62.90625 
Q 36.140625 65.921875 28.71875 65.921875 
Q 24.65625 65.921875 20.015625 65.03125 
Q 15.375 64.15625 9.8125 62.3125 
L 9.8125 71.09375 
Q 15.4375 72.65625 20.34375 73.4375 
Q 25.25 74.21875 29.59375 74.21875 
Q 40.828125 74.21875 47.359375 69.109375 
Q 53.90625 64.015625 53.90625 55.328125 
Q 53.90625 49.265625 50.4375 45.09375 
Q 46.96875 40.921875 40.578125 39.3125 
z
" id="DejaVuSans-51"/>
      </defs>
      <g transform="translate(876.172417 506.092038)scale(0.1 -0.1)">
       <use xlink:href="#DejaVuSans-48"/>
       <use x="63.623047" xlink:href="#DejaVuSans-46"/>
       <use x="95.410156" xlink:href="#DejaVuSans-48"/>
       <use x="159.033203" xlink:href="#DejaVuSans-51"/>
       <use x="222.65625" xlink:href="#DejaVuSans-48"/>
      </g>
     </g>
    </g>
    <g id="text_8">
     <!-- Time (us) -->
     <defs>
      <path d="M -0.296875 72.90625 
L 61.375 72.90625 
L 61.375 64.59375 
L 35.5 64.59375 
L 35.5 0 
L 25.59375 0 
L 25.59375 64.59375 
L -0.296875 64.59375 
z
" id="DejaVuSans-84"/>
      <path d="M 9.421875 54.6875 
L 18.40625 54.6875 
L 18.40625 0 
L 9.421875 0 
z
M 9.421875 75.984375 
L 18.40625 75.984375 
L 18.40625 64.59375 
L 9.421875 64.59375 
z
" id="DejaVuSans-105"/>
      <path d="M 52 44.1875 
Q 55.375 50.25 60.0625 53.125 
Q 64.75 56 71.09375 56 
Q 79.640625 56 84.28125 50.015625 
Q 88.921875 44.046875 88.921875 33.015625 
L 88.921875 0 
L 79.890625 0 
L 79.890625 32.71875 
Q 79.890625 40.578125 77.09375 44.375 
Q 74.3125 48.1875 68.609375 48.1875 
Q 61.625 48.1875 57.5625 43.546875 
Q 53.515625 38.921875 53.515625 30.90625 
L 53.515625 0 
L 44.484375 0 
L 44.484375 32.71875 
Q 44.484375 40.625 41.703125 44.40625 
Q 38.921875 48.1875 33.109375 48.1875 
Q 26.21875 48.1875 22.15625 43.53125 
Q 18.109375 38.875 18.109375 30.90625 
L 18.109375 0 
L 9.078125 0 
L 9.078125 54.6875 
L 18.109375 54.6875 
L 18.109375 46.1875 
Q 21.1875 51.21875 25.484375 53.609375 
Q 29.78125 56 35.6875 56 
Q 41.65625 56 45.828125 52.96875 
Q 50 49.953125 52 44.1875 
z
" id="DejaVuSans-109"/>
      <path d="M 56.203125 29.59375 
L 56.203125 25.203125 
L 14.890625 25.203125 
Q 15.484375 15.921875 20.484375 11.0625 
Q 25.484375 6.203125 34.421875 6.203125 
Q 39.59375 6.203125 44.453125 7.46875 
Q 49.3125 8.734375 54.109375 11.28125 
L 54.109375 2.78125 
Q 49.265625 0.734375 44.1875 -0.34375 
Q 39.109375 -1.421875 33.890625 -1.421875 
Q 20.796875 -1.421875 13.15625 6.1875 
Q 5.515625 13.8125 5.515625 26.8125 
Q 5.515625 40.234375 12.765625 48.109375 
Q 20.015625 56 32.328125 56 
Q 43.359375 56 49.78125 48.890625 
Q 56.203125 41.796875 56.203125 29.59375 
z
M 47.21875 32.234375 
Q 47.125 39.59375 43.09375 43.984375 
Q 39.0625 48.390625 32.421875 48.390625 
Q 24.90625 48.390625 20.390625 44.140625 
Q 15.875 39.890625 15.1875 32.171875 
z
" id="DejaVuSans-101"/>
      <path id="DejaVuSans-32"/>
      <path d="M 31 75.875 
Q 24.46875 64.65625 21.28125 53.65625 
Q 18.109375 42.671875 18.109375 31.390625 
Q 18.109375 20.125 21.3125 9.0625 
Q 24.515625 -2 31 -13.1875 
L 23.1875 -13.1875 
Q 15.875 -1.703125 12.234375 9.375 
Q 8.59375 20.453125 8.59375 31.390625 
Q 8.59375 42.28125 12.203125 53.3125 
Q 15.828125 64.359375 23.1875 75.875 
z
" id="DejaVuSans-40"/>
      <path d="M 8.5 21.578125 
L 8.5 54.6875 
L 17.484375 54.6875 
L 17.484375 21.921875 
Q 17.484375 14.15625 20.5 10.265625 
Q 23.53125 6.390625 29.59375 6.390625 
Q 36.859375 6.390625 41.078125 11.03125 
Q 45.3125 15.671875 45.3125 23.6875 
L 45.3125 54.6875 
L 54.296875 54.6875 
L 54.296875 0 
L 45.3125 0 
L 45.3125 8.40625 
Q 42.046875 3.421875 37.71875 1 
Q 33.40625 -1.421875 27.6875 -1.421875 
Q 18.265625 -1.421875 13.375 4.4375 
Q 8.5 10.296875 8.5 21.578125 
z
M 31.109375 56 
z
" id="DejaVuSans-117"/>
      <path d="M 44.28125 53.078125 
L 44.28125 44.578125 
Q 40.484375 46.53125 36.375 47.5 
Q 32.28125 48.484375 27.875 48.484375 
Q 21.1875 48.484375 17.84375 46.4375 
Q 14.5 44.390625 14.5 40.28125 
Q 14.5 37.15625 16.890625 35.375 
Q 19.28125 33.59375 26.515625 31.984375 
L 29.59375 31.296875 
Q 39.15625 29.25 43.1875 25.515625 
Q 47.21875 21.78125 47.21875 15.09375 
Q 47.21875 7.46875 41.1875 3.015625 
Q 35.15625 -1.421875 24.609375 -1.421875 
Q 20.21875 -1.421875 15.453125 -0.5625 
Q 10.6875 0.296875 5.421875 2 
L 5.421875 11.28125 
Q 10.40625 8.6875 15.234375 7.390625 
Q 20.0625 6.109375 24.8125 6.109375 
Q 31.15625 6.109375 34.5625 8.28125 
Q 37.984375 10.453125 37.984375 14.40625 
Q 37.984375 18.0625 35.515625 20.015625 
Q 33.0625 21.96875 24.703125 23.78125 
L 21.578125 24.515625 
Q 13.234375 26.265625 9.515625 29.90625 
Q 5.8125 33.546875 5.8125 39.890625 
Q 5.8125 47.609375 11.28125 51.796875 
Q 16.75 56 26.8125 56 
Q 31.78125 56 36.171875 55.265625 
Q 40.578125 54.546875 44.28125 53.078125 
z
" id="DejaVuSans-115"/>
      <path d="M 8.015625 75.875 
L 15.828125 75.875 
Q 23.140625 64.359375 26.78125 53.3125 
Q 30.421875 42.28125 30.421875 31.390625 
Q 30.421875 20.453125 26.78125 9.375 
Q 23.140625 -1.703125 15.828125 -13.1875 
L 8.015625 -13.1875 
Q 14.5 -2 17.703125 9.0625 
Q 20.90625 20.125 20.90625 31.390625 
Q 20.90625 42.671875 17.703125 53.65625 
Q 14.5 64.65625 8.015625 75.875 
z
" id="DejaVuSans-41"/>
     </defs>
     <g transform="translate(543.132438 519.770162)scale(0.1 -0.1)">
      <use xlink:href="#DejaVuSans-84"/>
      <use x="61.037109" xlink:href="#DejaVuSans-105"/>
      <use x="88.820312" xlink:href="#DejaVuSans-109"/>
      <use x="186.232422" xlink:href="#DejaVuSans-101"/>
      <use x="247.755859" xlink:href="#DejaVuSans-32"/>
      <use x="279.542969" xlink:href="#DejaVuSans-40"/>
      <use x="318.556641" xlink:href="#DejaVuSans-117"/>
      <use x="381.935547" xlink:href="#DejaVuSans-115"/>
      <use x="434.035156" xlink:href="#DejaVuSans-41"/>
     </g>
    </g>
   </g>
   <g id="matplotlib.axis_2">
    <g id="ytick_1">
     <g id="line2d_8">
      <defs>
       <path d="M 0 0 
L -3.5 0 
" id="md3184037bc" style="stroke:#000000;stroke-width:0.8;"/>
      </defs>
      <g>
       <use style="stroke:#000000;stroke-width:0.8;" x="138.24" xlink:href="#md3184037bc" y="491.4936"/>
      </g>
     </g>
     <g id="text_9">
      <!-- 0 -->
      <g transform="translate(124.8775 495.292819)scale(0.1 -0.1)">
       <use xlink:href="#DejaVuSans-48"/>
      </g>
     </g>
    </g>
    <g id="ytick_2">
     <g id="line2d_9">
      <g>
       <use style="stroke:#000000;stroke-width:0.8;" x="138.24" xlink:href="#md3184037bc" y="412.675468"/>
      </g>
     </g>
     <g id="text_10">
      <!-- 200000 -->
      <g transform="translate(93.065 416.474687)scale(0.1 -0.1)">
       <use xlink:href="#DejaVuSans-50"/>
       <use x="63.623047" xlink:href="#DejaVuSans-48"/>
       <use x="127.246094" xlink:href="#DejaVuSans-48"/>
       <use x="190.869141" xlink:href="#DejaVuSans-48"/>
       <use x="254.492188" xlink:href="#DejaVuSans-48"/>
       <use x="318.115234" xlink:href="#DejaVuSans-48"/>
      </g>
     </g>
    </g>
    <g id="ytick_3">
     <g id="line2d_10">
      <g>
       <use style="stroke:#000000;stroke-width:0.8;" x="138.24" xlink:href="#md3184037bc" y="333.857337"/>
      </g>
     </g>
     <g id="text_11">
      <!-- 400000 -->
      <defs>
       <path d="M 37.796875 64.3125 
L 12.890625 25.390625 
L 37.796875 25.390625 
z
M 35.203125 72.90625 
L 47.609375 72.90625 
L 47.609375 25.390625 
L 58.015625 25.390625 
L 58.015625 17.1875 
L 47.609375 17.1875 
L 47.609375 0 
L 37.796875 0 
L 37.796875 17.1875 
L 4.890625 17.1875 
L 4.890625 26.703125 
z
" id="DejaVuSans-52"/>
      </defs>
      <g transform="translate(93.065 337.656555)scale(0.1 -0.1)">
       <use xlink:href="#DejaVuSans-52"/>
       <use x="63.623047" xlink:href="#DejaVuSans-48"/>
       <use x="127.246094" xlink:href="#DejaVuSans-48"/>
       <use x="190.869141" xlink:href="#DejaVuSans-48"/>
       <use x="254.492188" xlink:href="#DejaVuSans-48"/>
       <use x="318.115234" xlink:href="#DejaVuSans-48"/>
      </g>
     </g>
    </g>
    <g id="ytick_4">
     <g id="line2d_11">
      <g>
       <use style="stroke:#000000;stroke-width:0.8;" x="138.24" xlink:href="#md3184037bc" y="255.039205"/>
      </g>
     </g>
     <g id="text_12">
      <!-- 600000 -->
      <defs>
       <path d="M 33.015625 40.375 
Q 26.375 40.375 22.484375 35.828125 
Q 18.609375 31.296875 18.609375 23.390625 
Q 18.609375 15.53125 22.484375 10.953125 
Q 26.375 6.390625 33.015625 6.390625 
Q 39.65625 6.390625 43.53125 10.953125 
Q 47.40625 15.53125 47.40625 23.390625 
Q 47.40625 31.296875 43.53125 35.828125 
Q 39.65625 40.375 33.015625 40.375 
z
M 52.59375 71.296875 
L 52.59375 62.3125 
Q 48.875 64.0625 45.09375 64.984375 
Q 41.3125 65.921875 37.59375 65.921875 
Q 27.828125 65.921875 22.671875 59.328125 
Q 17.53125 52.734375 16.796875 39.40625 
Q 19.671875 43.65625 24.015625 45.921875 
Q 28.375 48.1875 33.59375 48.1875 
Q 44.578125 48.1875 50.953125 41.515625 
Q 57.328125 34.859375 57.328125 23.390625 
Q 57.328125 12.15625 50.6875 5.359375 
Q 44.046875 -1.421875 33.015625 -1.421875 
Q 20.359375 -1.421875 13.671875 8.265625 
Q 6.984375 17.96875 6.984375 36.375 
Q 6.984375 53.65625 15.1875 63.9375 
Q 23.390625 74.21875 37.203125 74.21875 
Q 40.921875 74.21875 44.703125 73.484375 
Q 48.484375 72.75 52.59375 71.296875 
z
" id="DejaVuSans-54"/>
      </defs>
      <g transform="translate(93.065 258.838424)scale(0.1 -0.1)">
       <use xlink:href="#DejaVuSans-54"/>
       <use x="63.623047" xlink:href="#DejaVuSans-48"/>
       <use x="127.246094" xlink:href="#DejaVuSans-48"/>
       <use x="190.869141" xlink:href="#DejaVuSans-48"/>
       <use x="254.492188" xlink:href="#DejaVuSans-48"/>
       <use x="318.115234" xlink:href="#DejaVuSans-48"/>
      </g>
     </g>
    </g>
    <g id="ytick_5">
     <g id="line2d_12">
      <g>
       <use style="stroke:#000000;stroke-width:0.8;" x="138.24" xlink:href="#md3184037bc" y="176.221073"/>
      </g>
     </g>
     <g id="text_13">
      <!-- 800000 -->
      <defs>
       <path d="M 31.78125 34.625 
Q 24.75 34.625 20.71875 30.859375 
Q 16.703125 27.09375 16.703125 20.515625 
Q 16.703125 13.921875 20.71875 10.15625 
Q 24.75 6.390625 31.78125 6.390625 
Q 38.8125 6.390625 42.859375 10.171875 
Q 46.921875 13.96875 46.921875 20.515625 
Q 46.921875 27.09375 42.890625 30.859375 
Q 38.875 34.625 31.78125 34.625 
z
M 21.921875 38.8125 
Q 15.578125 40.375 12.03125 44.71875 
Q 8.5 49.078125 8.5 55.328125 
Q 8.5 64.0625 14.71875 69.140625 
Q 20.953125 74.21875 31.78125 74.21875 
Q 42.671875 74.21875 48.875 69.140625 
Q 55.078125 64.0625 55.078125 55.328125 
Q 55.078125 49.078125 51.53125 44.71875 
Q 48 40.375 41.703125 38.8125 
Q 48.828125 37.15625 52.796875 32.3125 
Q 56.78125 27.484375 56.78125 20.515625 
Q 56.78125 9.90625 50.3125 4.234375 
Q 43.84375 -1.421875 31.78125 -1.421875 
Q 19.734375 -1.421875 13.25 4.234375 
Q 6.78125 9.90625 6.78125 20.515625 
Q 6.78125 27.484375 10.78125 32.3125 
Q 14.796875 37.15625 21.921875 38.8125 
z
M 18.3125 54.390625 
Q 18.3125 48.734375 21.84375 45.5625 
Q 25.390625 42.390625 31.78125 42.390625 
Q 38.140625 42.390625 41.71875 45.5625 
Q 45.3125 48.734375 45.3125 54.390625 
Q 45.3125 60.0625 41.71875 63.234375 
Q 38.140625 66.40625 31.78125 66.40625 
Q 25.390625 66.40625 21.84375 63.234375 
Q 18.3125 60.0625 18.3125 54.390625 
z
" id="DejaVuSans-56"/>
      </defs>
      <g transform="translate(93.065 180.020292)scale(0.1 -0.1)">
       <use xlink:href="#DejaVuSans-56"/>
       <use x="63.623047" xlink:href="#DejaVuSans-48"/>
       <use x="127.246094" xlink:href="#DejaVuSans-48"/>
       <use x="190.869141" xlink:href="#DejaVuSans-48"/>
       <use x="254.492188" xlink:href="#DejaVuSans-48"/>
       <use x="318.115234" xlink:href="#DejaVuSans-48"/>
      </g>
     </g>
    </g>
    <g id="ytick_6">
     <g id="line2d_13">
      <g>
       <use style="stroke:#000000;stroke-width:0.8;" x="138.24" xlink:href="#md3184037bc" y="97.402942"/>
      </g>
     </g>
     <g id="text_14">
      <!-- 1000000 -->
      <g transform="translate(86.7025 101.202161)scale(0.1 -0.1)">
       <use xlink:href="#DejaVuSans-49"/>
       <use x="63.623047" xlink:href="#DejaVuSans-48"/>
       <use x="127.246094" xlink:href="#DejaVuSans-48"/>
       <use x="190.869141" xlink:href="#DejaVuSans-48"/>
       <use x="254.492188" xlink:href="#DejaVuSans-48"/>
       <use x="318.115234" xlink:href="#DejaVuSans-48"/>
       <use x="381.738281" xlink:href="#DejaVuSans-48"/>
      </g>
     </g>
    </g>
    <g id="text_15">
     <!-- Magnitude (Arbitrary) -->
     <defs>
      <path d="M 9.8125 72.90625 
L 24.515625 72.90625 
L 43.109375 23.296875 
L 61.8125 72.90625 
L 76.515625 72.90625 
L 76.515625 0 
L 66.890625 0 
L 66.890625 64.015625 
L 48.09375 14.015625 
L 38.1875 14.015625 
L 19.390625 64.015625 
L 19.390625 0 
L 9.8125 0 
z
" id="DejaVuSans-77"/>
      <path d="M 34.28125 27.484375 
Q 23.390625 27.484375 19.1875 25 
Q 14.984375 22.515625 14.984375 16.5 
Q 14.984375 11.71875 18.140625 8.90625 
Q 21.296875 6.109375 26.703125 6.109375 
Q 34.1875 6.109375 38.703125 11.40625 
Q 43.21875 16.703125 43.21875 25.484375 
L 43.21875 27.484375 
z
M 52.203125 31.203125 
L 52.203125 0 
L 43.21875 0 
L 43.21875 8.296875 
Q 40.140625 3.328125 35.546875 0.953125 
Q 30.953125 -1.421875 24.3125 -1.421875 
Q 15.921875 -1.421875 10.953125 3.296875 
Q 6 8.015625 6 15.921875 
Q 6 25.140625 12.171875 29.828125 
Q 18.359375 34.515625 30.609375 34.515625 
L 43.21875 34.515625 
L 43.21875 35.40625 
Q 43.21875 41.609375 39.140625 45 
Q 35.0625 48.390625 27.6875 48.390625 
Q 23 48.390625 18.546875 47.265625 
Q 14.109375 46.140625 10.015625 43.890625 
L 10.015625 52.203125 
Q 14.9375 54.109375 19.578125 55.046875 
Q 24.21875 56 28.609375 56 
Q 40.484375 56 46.34375 49.84375 
Q 52.203125 43.703125 52.203125 31.203125 
z
" id="DejaVuSans-97"/>
      <path d="M 45.40625 27.984375 
Q 45.40625 37.75 41.375 43.109375 
Q 37.359375 48.484375 30.078125 48.484375 
Q 22.859375 48.484375 18.828125 43.109375 
Q 14.796875 37.75 14.796875 27.984375 
Q 14.796875 18.265625 18.828125 12.890625 
Q 22.859375 7.515625 30.078125 7.515625 
Q 37.359375 7.515625 41.375 12.890625 
Q 45.40625 18.265625 45.40625 27.984375 
z
M 54.390625 6.78125 
Q 54.390625 -7.171875 48.1875 -13.984375 
Q 42 -20.796875 29.203125 -20.796875 
Q 24.46875 -20.796875 20.265625 -20.09375 
Q 16.0625 -19.390625 12.109375 -17.921875 
L 12.109375 -9.1875 
Q 16.0625 -11.328125 19.921875 -12.34375 
Q 23.78125 -13.375 27.78125 -13.375 
Q 36.625 -13.375 41.015625 -8.765625 
Q 45.40625 -4.15625 45.40625 5.171875 
L 45.40625 9.625 
Q 42.625 4.78125 38.28125 2.390625 
Q 33.9375 0 27.875 0 
Q 17.828125 0 11.671875 7.65625 
Q 5.515625 15.328125 5.515625 27.984375 
Q 5.515625 40.671875 11.671875 48.328125 
Q 17.828125 56 27.875 56 
Q 33.9375 56 38.28125 53.609375 
Q 42.625 51.21875 45.40625 46.390625 
L 45.40625 54.6875 
L 54.390625 54.6875 
z
" id="DejaVuSans-103"/>
      <path d="M 54.890625 33.015625 
L 54.890625 0 
L 45.90625 0 
L 45.90625 32.71875 
Q 45.90625 40.484375 42.875 44.328125 
Q 39.84375 48.1875 33.796875 48.1875 
Q 26.515625 48.1875 22.3125 43.546875 
Q 18.109375 38.921875 18.109375 30.90625 
L 18.109375 0 
L 9.078125 0 
L 9.078125 54.6875 
L 18.109375 54.6875 
L 18.109375 46.1875 
Q 21.34375 51.125 25.703125 53.5625 
Q 30.078125 56 35.796875 56 
Q 45.21875 56 50.046875 50.171875 
Q 54.890625 44.34375 54.890625 33.015625 
z
" id="DejaVuSans-110"/>
      <path d="M 18.3125 70.21875 
L 18.3125 54.6875 
L 36.8125 54.6875 
L 36.8125 47.703125 
L 18.3125 47.703125 
L 18.3125 18.015625 
Q 18.3125 11.328125 20.140625 9.421875 
Q 21.96875 7.515625 27.59375 7.515625 
L 36.8125 7.515625 
L 36.8125 0 
L 27.59375 0 
Q 17.1875 0 13.234375 3.875 
Q 9.28125 7.765625 9.28125 18.015625 
L 9.28125 47.703125 
L 2.6875 47.703125 
L 2.6875 54.6875 
L 9.28125 54.6875 
L 9.28125 70.21875 
z
" id="DejaVuSans-116"/>
      <path d="M 45.40625 46.390625 
L 45.40625 75.984375 
L 54.390625 75.984375 
L 54.390625 0 
L 45.40625 0 
L 45.40625 8.203125 
Q 42.578125 3.328125 38.25 0.953125 
Q 33.9375 -1.421875 27.875 -1.421875 
Q 17.96875 -1.421875 11.734375 6.484375 
Q 5.515625 14.40625 5.515625 27.296875 
Q 5.515625 40.1875 11.734375 48.09375 
Q 17.96875 56 27.875 56 
Q 33.9375 56 38.25 53.625 
Q 42.578125 51.265625 45.40625 46.390625 
z
M 14.796875 27.296875 
Q 14.796875 17.390625 18.875 11.75 
Q 22.953125 6.109375 30.078125 6.109375 
Q 37.203125 6.109375 41.296875 11.75 
Q 45.40625 17.390625 45.40625 27.296875 
Q 45.40625 37.203125 41.296875 42.84375 
Q 37.203125 48.484375 30.078125 48.484375 
Q 22.953125 48.484375 18.875 42.84375 
Q 14.796875 37.203125 14.796875 27.296875 
z
" id="DejaVuSans-100"/>
      <path d="M 34.1875 63.1875 
L 20.796875 26.90625 
L 47.609375 26.90625 
z
M 28.609375 72.90625 
L 39.796875 72.90625 
L 67.578125 0 
L 57.328125 0 
L 50.6875 18.703125 
L 17.828125 18.703125 
L 11.1875 0 
L 0.78125 0 
z
" id="DejaVuSans-65"/>
      <path d="M 41.109375 46.296875 
Q 39.59375 47.171875 37.8125 47.578125 
Q 36.03125 48 33.890625 48 
Q 26.265625 48 22.1875 43.046875 
Q 18.109375 38.09375 18.109375 28.8125 
L 18.109375 0 
L 9.078125 0 
L 9.078125 54.6875 
L 18.109375 54.6875 
L 18.109375 46.1875 
Q 20.953125 51.171875 25.484375 53.578125 
Q 30.03125 56 36.53125 56 
Q 37.453125 56 38.578125 55.875 
Q 39.703125 55.765625 41.0625 55.515625 
z
" id="DejaVuSans-114"/>
      <path d="M 48.6875 27.296875 
Q 48.6875 37.203125 44.609375 42.84375 
Q 40.53125 48.484375 33.40625 48.484375 
Q 26.265625 48.484375 22.1875 42.84375 
Q 18.109375 37.203125 18.109375 27.296875 
Q 18.109375 17.390625 22.1875 11.75 
Q 26.265625 6.109375 33.40625 6.109375 
Q 40.53125 6.109375 44.609375 11.75 
Q 48.6875 17.390625 48.6875 27.296875 
z
M 18.109375 46.390625 
Q 20.953125 51.265625 25.265625 53.625 
Q 29.59375 56 35.59375 56 
Q 45.5625 56 51.78125 48.09375 
Q 58.015625 40.1875 58.015625 27.296875 
Q 58.015625 14.40625 51.78125 6.484375 
Q 45.5625 -1.421875 35.59375 -1.421875 
Q 29.59375 -1.421875 25.265625 0.953125 
Q 20.953125 3.328125 18.109375 8.203125 
L 18.109375 0 
L 9.078125 0 
L 9.078125 75.984375 
L 18.109375 75.984375 
z
" id="DejaVuSans-98"/>
      <path d="M 32.171875 -5.078125 
Q 28.375 -14.84375 24.75 -17.8125 
Q 21.140625 -20.796875 15.09375 -20.796875 
L 7.90625 -20.796875 
L 7.90625 -13.28125 
L 13.1875 -13.28125 
Q 16.890625 -13.28125 18.9375 -11.515625 
Q 21 -9.765625 23.484375 -3.21875 
L 25.09375 0.875 
L 2.984375 54.6875 
L 12.5 54.6875 
L 29.59375 11.921875 
L 46.6875 54.6875 
L 56.203125 54.6875 
z
" id="DejaVuSans-121"/>
     </defs>
     <g transform="translate(80.622813 332.995263)rotate(-90)scale(0.1 -0.1)">
      <use xlink:href="#DejaVuSans-77"/>
      <use x="86.279297" xlink:href="#DejaVuSans-97"/>
      <use x="147.558594" xlink:href="#DejaVuSans-103"/>
      <use x="211.035156" xlink:href="#DejaVuSans-110"/>
      <use x="274.414062" xlink:href="#DejaVuSans-105"/>
      <use x="302.197266" xlink:href="#DejaVuSans-116"/>
      <use x="341.40625" xlink:href="#DejaVuSans-117"/>
      <use x="404.785156" xlink:href="#DejaVuSans-100"/>
      <use x="468.261719" xlink:href="#DejaVuSans-101"/>
      <use x="529.785156" xlink:href="#DejaVuSans-32"/>
      <use x="561.572266" xlink:href="#DejaVuSans-40"/>
      <use x="600.585938" xlink:href="#DejaVuSans-65"/>
      <use x="668.994141" xlink:href="#DejaVuSans-114"/>
      <use x="710.107422" xlink:href="#DejaVuSans-98"/>
      <use x="773.583984" xlink:href="#DejaVuSans-105"/>
      <use x="801.367188" xlink:href="#DejaVuSans-116"/>
      <use x="840.576172" xlink:href="#DejaVuSans-114"/>
      <use x="881.689453" xlink:href="#DejaVuSans-97"/>
      <use x="942.96875" xlink:href="#DejaVuSans-114"/>
      <use x="984.082031" xlink:href="#DejaVuSans-121"/>
      <use x="1043.261719" xlink:href="#DejaVuSans-41"/>
     </g>
    </g>
   </g>
   <g id="line2d_14">
    <path clip-path="url(#p2749304c40)" d="M 184.053421 151.590741 
L 208.426314 216.142183 
L 232.799207 349.250028 
L 257.172099 284.734255 
" style="fill:none;stroke:#1f77b4;stroke-linecap:square;stroke-width:1.5;"/>
   </g>
   <g id="line2d_15">
    <path clip-path="url(#p2749304c40)" d="M 177.198545 155.570901 
L 359.201316 553.24 
L 359.201316 553.24 
" style="fill:none;stroke:#ff7f0e;stroke-linecap:square;stroke-width:1.5;"/>
   </g>
   <g id="line2d_16">
    <path clip-path="url(#p2749304c40)" d="M 177.198545 487.91388 
L 177.960198 454.906108 
L 178.721851 459.112265 
L 179.483504 462.466267 
L 180.245157 442.213512 
L 181.00681 451.373761 
L 181.768463 445.093785 
L 182.530116 398.181228 
L 183.291769 229.243301 
L 184.053421 151.590741 
L 184.815074 191.123713 
L 185.576727 326.760157 
L 186.33838 423.838954 
L 187.100033 466.671867 
L 187.861686 454.167648 
L 188.623339 454.530469 
L 189.384992 491.256735 
L 190.146645 465.35713 
L 190.908298 424.221281 
L 191.66995 428.036751 
L 192.431603 363.52265 
L 193.193256 443.773474 
L 193.954909 437.979489 
L 194.716562 413.148839 
L 195.478215 245.589741 
L 196.239868 123.106804 
L 197.001521 225.093991 
L 197.763174 443.566148 
L 198.524826 461.966344 
L 199.286479 463.754811 
L 200.048132 470.640602 
L 200.809785 489.15728 
L 201.571438 486.853284 
L 202.333091 460.863391 
L 203.094744 468.8304 
L 203.856397 488.19143 
L 204.61805 486.530034 
L 205.379702 457.86385 
L 206.141355 468.356671 
L 206.903008 420.178421 
L 207.664661 251.655703 
L 208.426314 216.142183 
L 209.187967 236.569382 
L 209.94962 376.392476 
L 210.711273 452.322891 
L 211.472926 446.127629 
L 212.234579 427.187383 
L 212.996231 429.759453 
L 213.757884 486.301529 
L 214.519537 409.376283 
L 215.28119 367.606195 
L 216.042843 446.934641 
L 216.804496 441.096626 
L 217.566149 412.753693 
L 218.327802 451.63069 
L 219.089455 443.384459 
L 219.851107 285.472158 
L 220.61276 226.197501 
L 221.374413 283.857578 
L 222.136066 425.236176 
L 222.897719 490.803627 
L 223.659372 416.79711 
L 224.421025 467.17402 
L 225.182678 424.575185 
L 225.944331 490.935714 
L 226.705983 458.741642 
L 227.467636 404.792815 
L 228.229289 451.150272 
L 228.990942 416.368525 
L 229.752595 471.001751 
L 230.514248 443.048948 
L 231.275901 478.179026 
L 232.037554 464.482124 
L 232.799207 349.250028 
L 233.56086 333.510518 
L 234.322512 419.353575 
L 235.084165 435.934094 
L 235.845818 485.264898 
L 236.607471 450.635301 
L 237.369124 457.20676 
L 238.130777 486.570161 
L 238.89243 433.018709 
L 239.654083 449.889596 
L 240.415736 453.496068 
L 241.177388 470.283355 
L 241.939041 469.769498 
L 243.462347 390.836198 
L 244.224 368.345212 
L 244.985653 305.49195 
L 245.747306 316.387162 
L 246.508959 425.762851 
L 247.270612 439.508798 
L 248.032264 478.155061 
L 248.793917 469.897684 
L 249.55557 468.864397 
L 250.317223 491.466291 
L 251.078876 468.378964 
L 251.840529 436.131945 
L 252.602182 467.232539 
L 253.363835 434.521266 
L 254.125488 480.11407 
L 254.88714 482.945298 
L 255.648793 428.86717 
L 256.410446 348.410692 
L 257.172099 284.734255 
L 257.933752 347.863395 
L 258.695405 398.504479 
L 259.457058 476.741118 
L 260.218711 437.521922 
L 260.980364 461.00328 
L 261.742017 479.395116 
L 262.503669 486.730672 
L 263.265322 436.013234 
L 264.026975 398.570801 
L 264.788628 485.81944 
L 265.550281 405.788203 
L 266.311934 412.345171 
L 267.073587 471.349524 
L 267.83524 385.914989 
L 269.358545 306.349678 
L 270.120198 360.587202 
L 270.881851 484.020941 
L 271.643504 448.360287 
L 272.405157 481.449986 
L 273.16681 461.551134 
L 273.928463 485.082652 
L 274.690116 490.512702 
L 275.451769 469.970694 
L 276.213421 485.442686 
L 276.975074 487.01268 
L 277.736727 480.129118 
L 278.49838 468.161048 
L 279.260033 425.741116 
L 280.021686 343.268223 
L 280.783339 231.897855 
L 281.544992 279.828094 
L 282.306645 336.963725 
L 283.068298 448.96666 
L 283.82995 451.166435 
L 284.591603 407.909952 
L 285.353256 447.260121 
L 286.114909 443.45524 
L 286.876562 485.890778 
L 287.638215 431.156118 
L 288.399868 448.827885 
L 289.161521 469.814084 
L 289.923174 467.332859 
L 290.684826 451.132438 
L 291.446479 467.223622 
L 292.208132 417.100854 
L 292.969785 376.727988 
L 293.731438 302.217089 
L 294.493091 336.993263 
L 295.254744 362.244696 
L 296.016397 432.503738 
L 296.77805 485.996113 
L 297.539702 401.371376 
L 298.301355 485.945396 
L 299.063008 491.484683 
L 301.347967 374.99414 
L 302.10962 401.997256 
L 302.871273 448.161321 
L 303.632926 482.758593 
L 304.394579 488.574314 
L 305.156231 423.129475 
L 306.679537 317.627775 
L 307.44119 438.34844 
L 308.202843 469.241708 
L 308.964496 456.862888 
L 309.726149 464.042392 
L 310.487802 473.418327 
L 311.249455 489.979896 
L 312.011107 473.316893 
L 312.77276 476.323122 
L 313.534413 458.458519 
L 314.296066 482.755806 
L 315.057719 479.526088 
L 315.819372 396.675327 
L 316.581025 475.120408 
L 317.342678 401.899723 
L 318.104331 346.26442 
L 318.865983 431.790915 
L 319.627636 452.793834 
L 320.389289 428.83596 
L 321.150942 456.32228 
L 321.912595 399.51603 
L 322.674248 385.361004 
L 323.435901 488.303453 
L 324.197554 463.486736 
L 324.959207 460.029628 
L 325.72086 453.370669 
L 326.482512 489.863415 
L 327.244165 448.34078 
L 328.005818 423.701851 
L 328.767471 457.52165 
L 329.529124 364.785556 
L 330.290777 329.740749 
L 331.05243 348.370007 
L 331.814083 435.826529 
L 332.575736 486.715624 
L 333.337388 465.757849 
L 334.099041 472.937352 
L 334.860694 427.777593 
L 335.622347 490.697735 
L 336.384 478.597579 
L 337.145653 489.148362 
L 337.907306 488.490158 
L 339.430612 471.251992 
L 340.192264 469.634067 
L 340.953917 431.717347 
L 341.71557 322.868333 
L 342.477223 284.604398 
L 343.238876 365.709049 
L 344.000529 411.455675 
L 344.762182 446.353905 
L 345.523835 409.225247 
L 346.285488 407.094581 
L 347.04714 421.486471 
L 347.808793 487.559976 
L 348.570446 422.141889 
L 349.332099 445.51624 
L 350.093752 444.482396 
L 350.855405 470.77882 
L 351.617058 408.855738 
L 352.378711 317.823954 
L 353.140364 368.996172 
L 353.902017 302.32521 
L 355.425322 355.373395 
L 356.186975 489.095973 
L 356.948628 435.620318 
L 357.710281 333.030101 
L 358.471934 439.138732 
L 359.233587 390.108327 
L 359.99524 489.90187 
L 360.756893 467.402525 
L 361.518545 470.093863 
L 362.280198 480.358179 
L 363.041851 486.125413 
L 363.803504 488.213723 
L 364.565157 370.983047 
L 365.32681 387.264838 
L 366.088463 422.871432 
L 366.850116 333.13265 
L 367.611769 367.499188 
L 368.373421 412.270489 
L 369.135074 417.26025 
L 369.896727 337.502104 
L 370.65838 334.706545 
L 371.420033 437.694694 
L 372.181686 489.575833 
L 372.943339 479.608016 
L 373.704992 474.63386 
L 374.466645 484.709799 
L 375.228298 421.722221 
L 375.98995 425.373279 
L 376.751603 477.668513 
L 377.513256 423.509015 
L 378.274909 343.671171 
L 379.036562 287.367632 
L 379.798215 464.037376 
L 380.559868 429.164226 
L 381.321521 404.442812 
L 382.083174 384.09977 
L 382.844826 387.386336 
L 383.606479 485.886319 
L 384.368132 489.470498 
L 385.129785 482.540677 
L 385.891438 448.054313 
L 386.653091 483.77293 
L 388.176397 375.200351 
L 388.93805 394.796016 
L 389.699702 378.379909 
L 390.461355 391.862797 
L 391.223008 365.316133 
L 391.984661 443.515989 
L 392.746314 491.29742 
L 393.507967 405.905242 
L 394.26962 459.098889 
L 395.031273 451.673046 
L 395.792926 410.816977 
L 396.554579 490.03953 
L 397.316231 483.484234 
L 398.077884 415.881977 
L 398.839537 449.264273 
L 399.60119 465.915015 
L 400.362843 467.921955 
L 401.124496 441.418205 
L 401.886149 374.439598 
L 402.647802 353.619483 
L 403.409455 282.891171 
L 404.171107 379.830078 
L 405.694413 475.811495 
L 406.456066 446.884481 
L 407.217719 470.907005 
L 408.741025 491.262309 
L 409.502678 485.226443 
L 410.264331 436.2958 
L 411.025983 435.522785 
L 411.787636 438.632678 
L 412.549289 465.443515 
L 413.310942 482.960346 
L 415.595901 338.400517 
L 416.357554 351.138257 
L 417.119207 427.847259 
L 417.88086 435.152162 
L 418.642512 432.504852 
L 419.404165 461.5333 
L 420.165818 432.427941 
L 420.927471 489.838335 
L 421.689124 487.159815 
L 422.450777 456.160097 
L 423.21243 387.954253 
L 424.735736 453.792009 
L 425.497388 449.314433 
L 426.259041 437.134579 
L 427.020694 382.178659 
L 427.782347 384.958613 
L 428.544 447.809646 
L 429.305653 464.497729 
L 430.067306 424.236886 
L 430.828959 432.751192 
L 431.590612 461.112517 
L 432.352264 414.958484 
L 433.113917 491.147499 
L 433.87557 461.663715 
L 434.637223 419.16687 
L 435.398876 460.181221 
L 436.160529 450.103052 
L 436.922182 461.677648 
L 437.683835 431.331676 
L 438.445488 457.900076 
L 439.20714 405.405319 
L 439.968793 422.064978 
L 440.730446 489.685069 
L 441.492099 490.395106 
L 442.253752 439.700519 
L 443.015405 461.006624 
L 443.777058 449.472714 
L 444.538711 417.791941 
L 445.300364 484.216006 
L 446.062017 400.488568 
L 446.823669 371.443958 
L 447.585322 423.940388 
L 448.346975 458.029376 
L 449.108628 392.493135 
L 449.870281 390.513505 
L 450.631934 443.690432 
L 451.393587 418.045526 
L 452.15524 451.685308 
L 452.916893 376.614293 
L 453.678545 404.414389 
L 454.440198 402.565731 
L 455.201851 443.174346 
L 455.963504 441.086594 
L 456.725157 467.112157 
L 457.48681 488.973919 
L 458.248463 487.74278 
L 459.010116 450.634186 
L 459.771769 434.08042 
L 460.533421 450.322083 
L 461.295074 474.452728 
L 462.056727 484.424447 
L 462.81838 414.541602 
L 463.580033 382.602229 
L 464.341686 344.848806 
L 465.103339 315.091931 
L 466.626645 444.709786 
L 467.388298 432.594025 
L 468.14995 472.782973 
L 468.911603 473.959493 
L 469.673256 491.330303 
L 470.434909 475.814839 
L 471.196562 471.588618 
L 471.958215 447.333131 
L 472.719868 481.592662 
L 473.481521 441.491772 
L 474.243174 410.772391 
L 475.004826 479.838192 
L 475.766479 413.50943 
L 476.528132 449.968179 
L 477.289785 465.011029 
L 478.051438 411.448987 
L 478.813091 397.69691 
L 479.574744 400.499714 
L 480.336397 481.325144 
L 481.09805 474.058697 
L 481.859702 487.16706 
L 482.621355 428.967489 
L 483.383008 465.358244 
L 484.144661 487.796284 
L 484.906314 477.861348 
L 486.42962 445.497291 
L 487.191273 382.897613 
L 487.952926 386.844055 
L 488.714579 377.983092 
L 489.476231 378.783415 
L 490.237884 454.001564 
L 490.999537 490.493196 
L 491.76119 486.355033 
L 492.522843 454.911682 
L 493.284496 448.568728 
L 494.046149 487.101853 
L 494.807802 444.054368 
L 495.569455 459.957732 
L 496.331107 487.500342 
L 497.09276 489.823844 
L 497.854413 440.6307 
L 498.616066 410.007736 
L 499.377719 467.787638 
L 500.139372 485.489502 
L 500.901025 403.232295 
L 501.662678 410.786881 
L 502.424331 433.696978 
L 503.185983 447.836398 
L 503.947636 405.089313 
L 504.709289 406.561775 
L 505.470942 436.053919 
L 506.232595 488.447243 
L 506.994248 445.177942 
L 507.755901 420.24753 
L 508.517554 420.826037 
L 509.279207 427.662784 
L 510.04086 472.764581 
L 510.802512 449.162282 
L 511.564165 402.793121 
L 512.325818 461.283617 
L 513.087471 427.846145 
L 513.849124 452.556969 
L 514.610777 482.79872 
L 515.37243 474.208061 
L 516.134083 456.376898 
L 516.895736 425.06229 
L 517.657388 463.666753 
L 518.419041 489.527903 
L 519.180694 483.283039 
L 519.942347 454.158174 
L 520.704 445.760907 
L 521.465653 490.915093 
L 522.227306 484.420546 
L 522.988959 479.994244 
L 523.750612 455.376493 
L 524.512264 472.837591 
L 525.273917 467.629915 
L 526.03557 459.950487 
L 526.797223 399.269133 
L 527.558876 444.824596 
L 528.320529 473.303517 
L 529.082182 482.28765 
L 529.843835 460.050806 
L 530.605488 488.850749 
L 531.36714 453.899573 
L 532.128793 440.418358 
L 532.890446 413.43642 
L 533.652099 466.218202 
L 534.413752 421.26354 
L 535.175405 484.114573 
L 535.937058 478.881259 
L 536.698711 390.744796 
L 537.460364 395.466482 
L 538.222017 434.753115 
L 538.983669 466.144634 
L 539.745322 453.900131 
L 540.506975 434.03026 
L 541.268628 467.533497 
L 542.030281 490.143751 
L 542.791934 486.76021 
L 543.553587 462.414993 
L 544.31524 423.483378 
L 545.076893 429.794007 
L 545.838545 415.478471 
L 546.600198 448.944924 
L 547.361851 490.568992 
L 548.123504 484.145783 
L 548.885157 490.094706 
L 549.64681 487.716586 
L 550.408463 463.920337 
L 551.170116 410.305907 
L 551.931769 420.194026 
L 552.693421 425.563328 
L 553.455074 466.947745 
L 554.216727 453.817646 
L 554.97838 490.034514 
L 555.740033 478.81438 
L 556.501686 471.687265 
L 558.024992 480.068369 
L 558.786645 441.517967 
L 559.548298 434.509005 
L 560.30995 458.08901 
L 561.071603 487.121359 
L 561.833256 443.432389 
L 562.594909 488.336335 
L 563.356562 427.335632 
L 564.118215 435.428597 
L 564.879868 476.196609 
L 565.641521 430.079359 
L 566.403174 491.040492 
L 567.164826 485.51068 
L 567.926479 443.349905 
L 568.688132 461.026131 
L 569.449785 417.949108 
L 570.211438 452.922019 
L 570.973091 440.746067 
L 571.734744 459.37421 
L 572.496397 408.186944 
L 573.25805 403.114142 
L 574.019702 462.860856 
L 574.781355 431.826026 
L 575.543008 406.992032 
L 576.304661 414.655855 
L 577.066314 406.419656 
L 577.827967 467.715186 
L 578.58962 459.050402 
L 579.351273 489.999403 
L 580.874579 371.111233 
L 581.636231 385.451291 
L 582.397884 440.486352 
L 583.159537 483.830892 
L 583.92119 476.245096 
L 584.682843 465.386111 
L 585.444496 472.571745 
L 586.206149 463.70688 
L 586.967802 445.200235 
L 587.729455 459.865773 
L 588.491107 480.289628 
L 589.25276 446.672139 
L 590.014413 394.265439 
L 590.776066 421.100242 
L 591.537719 490.658722 
L 592.299372 482.399116 
L 593.061025 491.423934 
L 593.822678 489.959832 
L 594.584331 467.277683 
L 596.107636 407.339248 
L 596.869289 447.766732 
L 597.630942 427.205217 
L 598.392595 448.951612 
L 599.915901 481.505161 
L 600.677554 454.500373 
L 601.439207 407.94785 
L 602.20086 453.177276 
L 602.962512 491.257293 
L 603.724165 489.018505 
L 604.485818 463.981643 
L 605.247471 484.243873 
L 606.009124 412.95043 
L 606.770777 426.805055 
L 607.53243 433.119028 
L 608.294083 447.183209 
L 609.055736 411.290706 
L 609.817388 406.530007 
L 610.579041 402.708964 
L 611.340694 480.342017 
L 612.102347 485.174054 
L 612.864 463.186336 
L 613.625653 488.126779 
L 614.387306 473.972869 
L 615.148959 471.735753 
L 615.910612 490.509358 
L 616.672264 473.905989 
L 617.433917 460.58417 
L 618.19557 483.71664 
L 618.957223 422.003114 
L 619.718876 393.051578 
L 621.242182 427.472177 
L 622.003835 364.577673 
L 622.765488 418.647998 
L 623.52714 397.875255 
L 624.288793 396.162585 
L 625.050446 474.561965 
L 625.812099 444.753258 
L 626.573752 454.845917 
L 627.335405 387.027416 
L 628.097058 490.151553 
L 628.858711 467.210804 
L 629.620364 490.873294 
L 630.382017 397.392609 
L 631.143669 432.022763 
L 631.905322 486.110365 
L 632.666975 432.932323 
L 633.428628 446.015606 
L 634.190281 466.539223 
L 634.951934 478.512308 
L 635.713587 464.257521 
L 636.47524 420.282642 
L 637.236893 442.991543 
L 637.998545 476.862059 
L 638.760198 456.60373 
L 639.521851 426.455053 
L 640.283504 491.083406 
L 641.045157 442.826574 
L 641.80681 370.156529 
L 642.568463 396.744993 
L 643.330116 391.988196 
L 644.853421 457.707798 
L 645.615074 380.080875 
L 646.376727 321.609886 
L 647.13838 295.854071 
L 647.900033 399.715553 
L 648.661686 434.592047 
L 649.423339 450.867707 
L 650.184992 462.73267 
L 650.946645 483.419027 
L 651.708298 428.939623 
L 652.46995 489.632123 
L 653.231603 479.566773 
L 653.993256 387.67113 
L 654.754909 402.149964 
L 655.516562 441.845676 
L 656.278215 411.556552 
L 657.801521 463.777104 
L 658.563174 468.147115 
L 659.324826 465.221699 
L 660.086479 488.17471 
L 660.848132 483.689331 
L 661.609785 456.2554 
L 662.371438 487.489196 
L 663.133091 491.431179 
L 663.894744 445.829459 
L 664.656397 490.541683 
L 666.179702 457.357238 
L 666.941355 479.121468 
L 667.703008 479.726169 
L 668.464661 388.100273 
L 669.226314 393.836854 
L 669.987967 376.344546 
L 670.74962 450.56452 
L 671.511273 374.889919 
L 672.272926 472.878833 
L 673.034579 489.417552 
L 673.796231 473.725972 
L 674.557884 446.941329 
L 675.319537 470.298403 
L 676.08119 470.365282 
L 676.842843 490.609677 
L 677.604496 455.663517 
L 678.366149 444.506361 
L 679.127802 423.881311 
L 679.889455 445.089327 
L 680.651107 421.629704 
L 681.41276 436.548827 
L 682.174413 445.553581 
L 682.936066 478.335635 
L 683.697719 440.242799 
L 684.459372 482.092028 
L 685.982678 452.870188 
L 686.744331 481.385336 
L 687.505983 462.574389 
L 688.267636 416.08986 
L 689.029289 490.756255 
L 689.790942 467.625456 
L 690.552595 473.137991 
L 691.314248 470.830651 
L 692.075901 440.260634 
L 692.837554 394.22364 
L 693.599207 452.376395 
L 694.36086 400.29406 
L 695.122512 435.114264 
L 695.884165 457.22961 
L 696.645818 439.242395 
L 697.407471 476.946773 
L 698.169124 447.855905 
L 698.930777 455.142973 
L 699.69243 486.010604 
L 700.454083 464.43698 
L 701.215736 490.49431 
L 701.977388 480.185408 
L 702.739041 489.093744 
L 703.500694 457.01894 
L 704.262347 440.898217 
L 705.024 463.700192 
L 705.785653 414.351553 
L 706.547306 488.580445 
L 707.308959 478.299966 
L 708.070612 413.138249 
L 708.832264 410.266894 
L 709.593917 420.14331 
L 710.35557 460.108211 
L 711.117223 446.297614 
L 711.878876 450.406796 
L 712.640529 478.331176 
L 713.402182 490.79694 
L 714.163835 491.34758 
L 715.68714 423.130589 
L 716.448793 468.186686 
L 717.210446 486.122627 
L 717.972099 489.457122 
L 718.733752 397.700254 
L 719.495405 435.358931 
L 720.257058 463.094934 
L 721.018711 456.764241 
L 721.780364 481.064872 
L 722.542017 357.081606 
L 723.303669 448.033692 
L 724.065322 474.05814 
L 724.826975 453.690575 
L 725.588628 488.832357 
L 726.350281 448.484014 
L 727.111934 465.424009 
L 727.873587 444.472364 
L 728.63524 442.728484 
L 729.396893 460.246429 
L 730.158545 436.493651 
L 730.920198 391.337794 
L 731.681851 443.774032 
L 732.443504 436.545483 
L 733.205157 490.745108 
L 733.96681 445.44323 
L 734.728463 409.026838 
L 735.490116 471.575242 
L 736.251769 454.939548 
L 737.013421 444.323 
L 737.775074 490.628069 
L 738.536727 490.517161 
L 739.29838 463.218661 
L 740.060033 491.407214 
L 740.821686 452.263257 
L 741.583339 487.14198 
L 742.344992 446.230178 
L 743.106645 462.132985 
L 743.868298 429.786762 
L 744.62995 425.820256 
L 745.391603 412.755365 
L 746.153256 454.581186 
L 746.914909 478.690653 
L 747.676562 444.836857 
L 748.438215 486.104235 
L 749.199868 491.27457 
L 749.961521 489.884036 
L 750.723174 464.259193 
L 751.484826 397.690222 
L 752.246479 484.281771 
L 753.008132 448.771038 
L 753.769785 472.74396 
L 754.531438 380.279842 
L 755.293091 443.408424 
L 756.054744 407.800716 
L 756.816397 435.460365 
L 757.57805 439.854341 
L 758.339702 419.364164 
L 759.101355 459.337426 
L 759.863008 428.079108 
L 760.624661 487.069528 
L 761.386314 485.549136 
L 762.147967 487.189353 
L 762.90962 415.18866 
L 763.671273 364.582689 
L 764.432926 402.784761 
L 765.194579 452.93651 
L 765.956231 448.214824 
L 766.717884 442.643212 
L 767.479537 455.781114 
L 768.24119 389.43396 
L 769.002843 338.739373 
L 769.764496 404.404914 
L 770.526149 425.829731 
L 771.287802 487.445167 
L 772.049455 471.377948 
L 772.811107 462.471283 
L 773.57276 463.086574 
L 774.334413 489.502266 
L 775.096066 479.521072 
L 775.857719 412.187447 
L 776.619372 381.226743 
L 777.381025 484.22158 
L 778.142678 488.40823 
L 778.904331 437.203688 
L 779.665983 422.481859 
L 781.189289 375.034267 
L 781.950942 425.566672 
L 782.712595 457.460344 
L 783.474248 423.103838 
L 784.235901 452.277748 
L 785.759207 479.838192 
L 786.52086 490.596859 
L 787.282512 480.606748 
L 788.044165 424.599707 
L 788.805818 416.493923 
L 789.567471 429.925537 
L 790.329124 482.384068 
L 791.090777 482.039082 
L 791.85243 484.910437 
L 792.614083 476.498123 
L 793.375736 485.544677 
L 794.137388 488.039836 
L 794.899041 476.587296 
L 795.660694 487.339274 
L 796.422347 475.577974 
L 797.184 466.492965 
L 797.945653 458.863697 
L 798.707306 490.107524 
L 799.468959 461.650896 
L 800.230612 440.087305 
L 800.992264 466.577121 
L 801.753917 466.876964 
L 802.51557 452.682925 
L 803.277223 465.659201 
L 804.038876 469.933353 
L 804.800529 456.132231 
L 805.562182 435.410762 
L 806.323835 479.597984 
L 807.085488 458.50422 
L 807.84714 490.334357 
L 808.608793 461.276929 
L 809.370446 447.270152 
L 810.132099 479.823702 
L 810.893752 489.218028 
L 811.655405 471.527312 
L 812.417058 425.696529 
L 813.178711 425.563328 
L 813.940364 442.674423 
L 814.702017 487.997479 
L 815.463669 463.292228 
L 816.225322 416.904117 
L 816.986975 471.703427 
L 817.748628 457.236298 
L 818.510281 428.475368 
L 819.271934 458.963459 
L 820.033587 421.140927 
L 820.79524 441.14177 
L 821.556893 436.52319 
L 822.318545 467.307221 
L 823.080198 488.489043 
L 823.841851 457.608036 
L 824.603504 473.416098 
L 825.365157 452.224802 
L 826.12681 437.341905 
L 826.888463 476.859829 
L 827.650116 481.593219 
L 828.411769 473.133532 
L 829.173421 476.227819 
L 829.935074 434.368558 
L 830.696727 479.603557 
L 831.45838 474.503445 
L 832.220033 474.381948 
L 832.981686 475.671605 
L 833.743339 472.395629 
L 834.504992 399.081314 
L 835.266645 491.415574 
L 836.028298 454.294719 
L 837.551603 399.430759 
L 838.313256 423.4622 
L 839.074909 463.077657 
L 839.836562 452.665091 
L 840.598215 434.235914 
L 841.359868 476.714924 
L 842.121521 472.24738 
L 842.883174 417.465904 
L 843.644826 439.427985 
L 844.406479 451.67862 
L 845.929785 395.107563 
L 846.691438 410.319283 
L 847.453091 489.230847 
L 848.214744 455.676893 
L 848.976397 487.298589 
L 849.73805 458.379936 
L 850.499702 485.367447 
L 851.261355 462.336967 
L 852.023008 446.076912 
L 852.784661 474.923113 
L 853.546314 463.436019 
L 854.307967 463.988331 
L 855.06962 459.807254 
L 855.831273 462.859184 
L 856.592926 455.625062 
L 857.354579 445.555253 
L 858.116231 489.495021 
L 858.877884 489.449877 
L 859.639537 491.347023 
L 860.40119 476.74502 
L 861.162843 450.512132 
L 861.924496 480.795682 
L 862.686149 432.965763 
L 863.447802 427.335075 
L 864.209455 473.607818 
L 864.971107 447.022141 
L 865.73276 471.920228 
L 866.494413 410.081303 
L 867.256066 441.773223 
L 868.017719 491.15363 
L 868.779372 489.43873 
L 869.541025 474.258221 
L 870.302678 472.057331 
L 871.064331 470.983917 
L 871.825983 490.721143 
L 872.587636 458.913299 
L 873.349289 400.34422 
L 874.110942 461.80026 
L 874.872595 434.718003 
L 875.634248 447.048893 
L 877.157554 485.366332 
L 877.919207 446.277551 
L 878.68086 452.290566 
L 879.442512 481.762647 
L 880.204165 471.55685 
L 880.965818 448.403201 
L 881.727471 449.624307 
L 882.489124 432.983597 
L 883.250777 420.861706 
L 884.01243 490.536667 
L 884.774083 490.692719 
L 885.535736 423.864591 
L 887.059041 479.265816 
L 887.820694 488.152974 
L 888.582347 445.593709 
L 889.344 417.025615 
L 890.105653 420.760829 
L 890.867306 381.006598 
L 891.628959 449.077011 
L 892.390612 447.376045 
L 893.913917 475.820969 
L 894.67557 475.735141 
L 895.437223 475.099229 
L 896.198876 490.076314 
L 896.960529 478.113261 
L 897.722182 473.20487 
L 898.483835 470.666239 
L 899.245488 489.716837 
L 900.00714 469.208268 
L 900.768793 477.923212 
L 901.530446 457.643148 
L 902.292099 488.573757 
L 903.053752 478.285475 
L 903.815405 479.754593 
L 904.577058 436.4669 
L 905.338711 488.150745 
L 906.100364 489.268188 
L 906.862017 485.753118 
L 907.623669 452.74033 
L 908.385322 488.14127 
L 909.146975 470.26775 
L 909.908628 488.494616 
L 910.670281 479.501008 
L 911.431934 456.866789 
L 912.193587 483.940686 
L 912.95524 476.049474 
L 913.716893 452.749805 
L 914.478545 467.193526 
L 915.240198 459.621663 
L 916.001851 434.250405 
L 916.763504 469.310817 
L 917.525157 482.033509 
L 918.28681 488.08498 
L 919.048463 489.872889 
L 919.810116 447.465775 
L 920.571769 489.037454 
L 921.333421 447.452956 
L 922.095074 473.601688 
L 922.856727 426.155768 
L 923.61838 470.592672 
L 924.380033 465.266842 
L 925.141686 470.154055 
L 925.903339 462.807352 
L 926.664992 465.702116 
L 927.426645 445.294981 
L 928.94995 488.004725 
L 929.711603 467.164545 
L 930.473256 490.331013 
L 931.234909 406.799754 
L 931.996562 483.282481 
L 932.758215 491.442883 
L 933.519868 461.129794 
L 934.281521 452.081011 
L 935.043174 429.245596 
L 935.804826 486.802567 
L 936.566479 450.613008 
L 937.328132 441.062072 
L 938.089785 390.22258 
L 938.851438 460.073099 
L 939.613091 483.257959 
L 941.136397 398.066976 
L 941.89805 377.562866 
L 942.659702 450.547801 
L 943.421355 412.208626 
L 944.944661 489.598126 
L 945.706314 458.662501 
L 946.467967 490.733404 
L 947.22962 479.87832 
L 947.991273 453.929669 
L 948.752926 413.878939 
L 949.514579 405.006829 
L 950.276231 434.207491 
L 951.037884 442.737958 
L 951.799537 468.757947 
L 952.56119 427.523452 
L 953.322843 448.018644 
L 954.084496 461.900579 
L 954.846149 429.372667 
L 955.607802 449.127728 
L 956.369455 432.897769 
L 956.369455 432.897769 
" style="fill:none;stroke:#2ca02c;stroke-linecap:square;stroke-width:1.5;"/>
   </g>
   <g id="patch_3">
    <path d="M 138.24 491.4936 
L 138.24 66.2688 
" style="fill:none;stroke:#000000;stroke-linecap:square;stroke-linejoin:miter;stroke-width:0.8;"/>
   </g>
   <g id="patch_4">
    <path d="M 995.328 491.4936 
L 995.328 66.2688 
" style="fill:none;stroke:#000000;stroke-linecap:square;stroke-linejoin:miter;stroke-width:0.8;"/>
   </g>
   <g id="patch_5">
    <path d="M 138.24 491.4936 
L 995.328 491.4936 
" style="fill:none;stroke:#000000;stroke-linecap:square;stroke-linejoin:miter;stroke-width:0.8;"/>
   </g>
   <g id="patch_6">
    <path d="M 138.24 66.2688 
L 995.328 66.2688 
" style="fill:none;stroke:#000000;stroke-linecap:square;stroke-linejoin:miter;stroke-width:0.8;"/>
   </g>
   <g id="text_16">
    <!-- Scan Time: 515 seconds -->
    <defs>
     <path d="M 53.515625 70.515625 
L 53.515625 60.890625 
Q 47.90625 63.578125 42.921875 64.890625 
Q 37.9375 66.21875 33.296875 66.21875 
Q 25.25 66.21875 20.875 63.09375 
Q 16.5 59.96875 16.5 54.203125 
Q 16.5 49.359375 19.40625 46.890625 
Q 22.3125 44.4375 30.421875 42.921875 
L 36.375 41.703125 
Q 47.40625 39.59375 52.65625 34.296875 
Q 57.90625 29 57.90625 20.125 
Q 57.90625 9.515625 50.796875 4.046875 
Q 43.703125 -1.421875 29.984375 -1.421875 
Q 24.8125 -1.421875 18.96875 -0.25 
Q 13.140625 0.921875 6.890625 3.21875 
L 6.890625 13.375 
Q 12.890625 10.015625 18.65625 8.296875 
Q 24.421875 6.59375 29.984375 6.59375 
Q 38.421875 6.59375 43.015625 9.90625 
Q 47.609375 13.234375 47.609375 19.390625 
Q 47.609375 24.75 44.3125 27.78125 
Q 41.015625 30.8125 33.5 32.328125 
L 27.484375 33.5 
Q 16.453125 35.6875 11.515625 40.375 
Q 6.59375 45.0625 6.59375 53.421875 
Q 6.59375 63.09375 13.40625 68.65625 
Q 20.21875 74.21875 32.171875 74.21875 
Q 37.3125 74.21875 42.625 73.28125 
Q 47.953125 72.359375 53.515625 70.515625 
z
" id="DejaVuSans-83"/>
     <path d="M 48.78125 52.59375 
L 48.78125 44.1875 
Q 44.96875 46.296875 41.140625 47.34375 
Q 37.3125 48.390625 33.40625 48.390625 
Q 24.65625 48.390625 19.8125 42.84375 
Q 14.984375 37.3125 14.984375 27.296875 
Q 14.984375 17.28125 19.8125 11.734375 
Q 24.65625 6.203125 33.40625 6.203125 
Q 37.3125 6.203125 41.140625 7.25 
Q 44.96875 8.296875 48.78125 10.40625 
L 48.78125 2.09375 
Q 45.015625 0.34375 40.984375 -0.53125 
Q 36.96875 -1.421875 32.421875 -1.421875 
Q 20.0625 -1.421875 12.78125 6.34375 
Q 5.515625 14.109375 5.515625 27.296875 
Q 5.515625 40.671875 12.859375 48.328125 
Q 20.21875 56 33.015625 56 
Q 37.15625 56 41.109375 55.140625 
Q 45.0625 54.296875 48.78125 52.59375 
z
" id="DejaVuSans-99"/>
     <path d="M 11.71875 12.40625 
L 22.015625 12.40625 
L 22.015625 0 
L 11.71875 0 
z
M 11.71875 51.703125 
L 22.015625 51.703125 
L 22.015625 39.3125 
L 11.71875 39.3125 
z
" id="DejaVuSans-58"/>
     <path d="M 30.609375 48.390625 
Q 23.390625 48.390625 19.1875 42.75 
Q 14.984375 37.109375 14.984375 27.296875 
Q 14.984375 17.484375 19.15625 11.84375 
Q 23.34375 6.203125 30.609375 6.203125 
Q 37.796875 6.203125 41.984375 11.859375 
Q 46.1875 17.53125 46.1875 27.296875 
Q 46.1875 37.015625 41.984375 42.703125 
Q 37.796875 48.390625 30.609375 48.390625 
z
M 30.609375 56 
Q 42.328125 56 49.015625 48.375 
Q 55.71875 40.765625 55.71875 27.296875 
Q 55.71875 13.875 49.015625 6.21875 
Q 42.328125 -1.421875 30.609375 -1.421875 
Q 18.84375 -1.421875 12.171875 6.21875 
Q 5.515625 13.875 5.515625 27.296875 
Q 5.515625 40.765625 12.171875 48.375 
Q 18.84375 56 30.609375 56 
z
" id="DejaVuSans-111"/>
    </defs>
    <g transform="translate(493.612125 60.2688)scale(0.12 -0.12)">
     <use xlink:href="#DejaVuSans-83"/>
     <use x="63.476562" xlink:href="#DejaVuSans-99"/>
     <use x="118.457031" xlink:href="#DejaVuSans-97"/>
     <use x="179.736328" xlink:href="#DejaVuSans-110"/>
     <use x="243.115234" xlink:href="#DejaVuSans-32"/>
     <use x="274.902344" xlink:href="#DejaVuSans-84"/>
     <use x="335.939453" xlink:href="#DejaVuSans-105"/>
     <use x="363.722656" xlink:href="#DejaVuSans-109"/>
     <use x="461.134766" xlink:href="#DejaVuSans-101"/>
     <use x="522.658203" xlink:href="#DejaVuSans-58"/>
     <use x="556.349609" xlink:href="#DejaVuSans-32"/>
     <use x="588.136719" xlink:href="#DejaVuSans-53"/>
     <use x="651.759766" xlink:href="#DejaVuSans-49"/>
     <use x="715.382812" xlink:href="#DejaVuSans-53"/>
     <use x="779.005859" xlink:href="#DejaVuSans-32"/>
     <use x="810.792969" xlink:href="#DejaVuSans-115"/>
     <use x="862.892578" xlink:href="#DejaVuSans-101"/>
     <use x="924.416016" xlink:href="#DejaVuSans-99"/>
     <use x="979.396484" xlink:href="#DejaVuSans-111"/>
     <use x="1040.578125" xlink:href="#DejaVuSans-110"/>
     <use x="1103.957031" xlink:href="#DejaVuSans-100"/>
     <use x="1167.433594" xlink:href="#DejaVuSans-115"/>
    </g>
   </g>
   <g id="legend_1">
    <g id="patch_7">
     <path d="M 891.454563 118.303175 
L 988.328 118.303175 
Q 990.328 118.303175 990.328 116.303175 
L 990.328 73.2688 
Q 990.328 71.2688 988.328 71.2688 
L 891.454563 71.2688 
Q 889.454563 71.2688 889.454563 73.2688 
L 889.454563 116.303175 
Q 889.454563 118.303175 891.454563 118.303175 
z
" style="fill:#ffffff;opacity:0.8;stroke:#cccccc;stroke-linejoin:miter;"/>
    </g>
    <g id="line2d_17">
     <path d="M 893.454563 79.367237 
L 913.454563 79.367237 
" style="fill:none;stroke:#1f77b4;stroke-linecap:square;stroke-width:1.5;"/>
    </g>
    <g id="line2d_18"/>
    <g id="text_17">
     <!-- 4 peaks data -->
     <defs>
      <path d="M 18.109375 8.203125 
L 18.109375 -20.796875 
L 9.078125 -20.796875 
L 9.078125 54.6875 
L 18.109375 54.6875 
L 18.109375 46.390625 
Q 20.953125 51.265625 25.265625 53.625 
Q 29.59375 56 35.59375 56 
Q 45.5625 56 51.78125 48.09375 
Q 58.015625 40.1875 58.015625 27.296875 
Q 58.015625 14.40625 51.78125 6.484375 
Q 45.5625 -1.421875 35.59375 -1.421875 
Q 29.59375 -1.421875 25.265625 0.953125 
Q 20.953125 3.328125 18.109375 8.203125 
z
M 48.6875 27.296875 
Q 48.6875 37.203125 44.609375 42.84375 
Q 40.53125 48.484375 33.40625 48.484375 
Q 26.265625 48.484375 22.1875 42.84375 
Q 18.109375 37.203125 18.109375 27.296875 
Q 18.109375 17.390625 22.1875 11.75 
Q 26.265625 6.109375 33.40625 6.109375 
Q 40.53125 6.109375 44.609375 11.75 
Q 48.6875 17.390625 48.6875 27.296875 
z
" id="DejaVuSans-112"/>
      <path d="M 9.078125 75.984375 
L 18.109375 75.984375 
L 18.109375 31.109375 
L 44.921875 54.6875 
L 56.390625 54.6875 
L 27.390625 29.109375 
L 57.625 0 
L 45.90625 0 
L 18.109375 26.703125 
L 18.109375 0 
L 9.078125 0 
z
" id="DejaVuSans-107"/>
     </defs>
     <g transform="translate(921.454563 82.867237)scale(0.1 -0.1)">
      <use xlink:href="#DejaVuSans-52"/>
      <use x="63.623047" xlink:href="#DejaVuSans-32"/>
      <use x="95.410156" xlink:href="#DejaVuSans-112"/>
      <use x="158.886719" xlink:href="#DejaVuSans-101"/>
      <use x="220.410156" xlink:href="#DejaVuSans-97"/>
      <use x="281.689453" xlink:href="#DejaVuSans-107"/>
      <use x="339.599609" xlink:href="#DejaVuSans-115"/>
      <use x="391.699219" xlink:href="#DejaVuSans-32"/>
      <use x="423.486328" xlink:href="#DejaVuSans-100"/>
      <use x="486.962891" xlink:href="#DejaVuSans-97"/>
      <use x="548.242188" xlink:href="#DejaVuSans-116"/>
      <use x="587.451172" xlink:href="#DejaVuSans-97"/>
     </g>
    </g>
    <g id="line2d_19">
     <path d="M 893.454563 94.045363 
L 913.454563 94.045363 
" style="fill:none;stroke:#ff7f0e;stroke-linecap:square;stroke-width:1.5;"/>
    </g>
    <g id="line2d_20"/>
    <g id="text_18">
     <!-- linear fit -->
     <defs>
      <path d="M 9.421875 75.984375 
L 18.40625 75.984375 
L 18.40625 0 
L 9.421875 0 
z
" id="DejaVuSans-108"/>
      <path d="M 37.109375 75.984375 
L 37.109375 68.5 
L 28.515625 68.5 
Q 23.6875 68.5 21.796875 66.546875 
Q 19.921875 64.59375 19.921875 59.515625 
L 19.921875 54.6875 
L 34.71875 54.6875 
L 34.71875 47.703125 
L 19.921875 47.703125 
L 19.921875 0 
L 10.890625 0 
L 10.890625 47.703125 
L 2.296875 47.703125 
L 2.296875 54.6875 
L 10.890625 54.6875 
L 10.890625 58.5 
Q 10.890625 67.625 15.140625 71.796875 
Q 19.390625 75.984375 28.609375 75.984375 
z
" id="DejaVuSans-102"/>
     </defs>
     <g transform="translate(921.454563 97.545363)scale(0.1 -0.1)">
      <use xlink:href="#DejaVuSans-108"/>
      <use x="27.783203" xlink:href="#DejaVuSans-105"/>
      <use x="55.566406" xlink:href="#DejaVuSans-110"/>
      <use x="118.945312" xlink:href="#DejaVuSans-101"/>
      <use x="180.46875" xlink:href="#DejaVuSans-97"/>
      <use x="241.748047" xlink:href="#DejaVuSans-114"/>
      <use x="282.861328" xlink:href="#DejaVuSans-32"/>
      <use x="314.648438" xlink:href="#DejaVuSans-102"/>
      <use x="349.853516" xlink:href="#DejaVuSans-105"/>
      <use x="377.636719" xlink:href="#DejaVuSans-116"/>
     </g>
    </g>
    <g id="line2d_21">
     <path d="M 893.454563 108.723487 
L 913.454563 108.723487 
" style="fill:none;stroke:#2ca02c;stroke-linecap:square;stroke-width:1.5;"/>
    </g>
    <g id="line2d_22"/>
    <g id="text_19">
     <!-- data -->
     <g transform="translate(921.454563 112.223487)scale(0.1 -0.1)">
      <use xlink:href="#DejaVuSans-100"/>
      <use x="63.476562" xlink:href="#DejaVuSans-97"/>
      <use x="124.755859" xlink:href="#DejaVuSans-116"/>
      <use x="163.964844" xlink:href="#DejaVuSans-97"/>
     </g>
    </g>
   </g>
  </g>
 </g>
 <defs>
  <clipPath id="p2749304c40">
   <rect height="425.2248" width="857.088" x="138.24" y="66.2688"/>
  </clipPath>
 </defs>
</svg>
